<svg width="188" height="43" viewBox="0 0 188 43" fill="none" xmlns="http://www.w3.org/2000/svg">
<path d="M0 15C0 11.134 3.13401 8 7 8H181C184.866 8 188 11.134 188 15V36C188 39.866 184.866 43 181 43H7C3.13401 43 0 39.866 0 36V15Z" fill="#723EB5"/>
<path d="M11 11C11 7.13401 14.134 4 18 4H170C173.866 4 177 7.13401 177 11V18C177 21.866 173.866 25 170 25H18C14.134 25 11 21.866 11 18V11Z" fill="#723EB5" fill-opacity="0.5"/>
<path d="M32 7C32 3.13401 35.134 0 39 0H149C152.866 0 156 3.13401 156 7V9C156 12.866 152.866 16 149 16H39C35.134 16 32 12.866 32 9V7Z" fill="#723EB5" fill-opacity="0.2"/>
<path d="M26.5316 27.5879H21.1703V23.8818H26.5316C27.3227 23.8818 27.9574 23.75 28.4359 23.4863C28.9242 23.2227 29.2807 22.8613 29.5053 22.4023C29.7397 21.9336 29.8568 21.4062 29.8568 20.8203C29.8568 20.2148 29.7397 19.6533 29.5053 19.1357C29.2807 18.6084 28.9242 18.1836 28.4359 17.8613C27.9574 17.5391 27.3227 17.3779 26.5316 17.3779H22.8988V35H18.1234V13.6719H26.5316C28.2309 13.6719 29.6859 13.9795 30.8969 14.5947C32.1176 15.21 33.0502 16.0547 33.6947 17.1289C34.349 18.1934 34.6762 19.4141 34.6762 20.791C34.6762 22.168 34.349 23.3643 33.6947 24.3799C33.0502 25.3955 32.1176 26.1865 30.8969 26.7529C29.6859 27.3096 28.2309 27.5879 26.5316 27.5879Z" fill="white"/>
<path d="M40.0615 12.5V35H35.4766V12.5H40.0615Z" fill="white"/>
<path d="M49.651 31.2207V24.4238C49.651 23.9453 49.5777 23.5352 49.4313 23.1934C49.2848 22.8516 49.0553 22.583 48.7428 22.3877C48.4303 22.1924 48.025 22.0947 47.527 22.0947C47.107 22.0947 46.7408 22.168 46.4283 22.3145C46.1256 22.4609 45.8912 22.6709 45.7252 22.9443C45.569 23.2178 45.4908 23.5547 45.4908 23.9551H40.9205C40.9205 23.2422 41.0816 22.5781 41.4039 21.9629C41.7262 21.3477 42.1852 20.8057 42.7809 20.3369C43.3863 19.8682 44.109 19.5068 44.9488 19.2529C45.7887 18.9893 46.7311 18.8574 47.776 18.8574C49.0162 18.8574 50.1197 19.0674 51.0865 19.4873C52.0631 19.8975 52.8346 20.5176 53.401 21.3477C53.9674 22.168 54.2506 23.2031 54.2506 24.4531V31.0889C54.2506 32.0459 54.3043 32.7979 54.4117 33.3447C54.5289 33.8818 54.6949 34.3506 54.9098 34.751V35H50.2955C50.0807 34.541 49.9195 33.9746 49.8121 33.3008C49.7047 32.6172 49.651 31.9238 49.651 31.2207ZM50.2223 25.332L50.2516 27.8516H47.9811C47.4732 27.8516 47.0338 27.915 46.6627 28.042C46.3014 28.1689 46.0084 28.3447 45.7838 28.5693C45.5592 28.7842 45.3932 29.0381 45.2857 29.3311C45.1881 29.6143 45.1393 29.9268 45.1393 30.2686C45.1393 30.5908 45.2174 30.8838 45.3736 31.1475C45.5299 31.4014 45.7447 31.6016 46.0182 31.748C46.2916 31.8945 46.609 31.9678 46.9703 31.9678C47.566 31.9678 48.0738 31.8506 48.4938 31.6162C48.9234 31.3818 49.2555 31.0986 49.4898 30.7666C49.7242 30.4248 49.8414 30.1074 49.8414 29.8145L50.94 31.7188C50.7643 32.1094 50.5494 32.5146 50.2955 32.9346C50.0416 33.3447 49.7193 33.7305 49.3287 34.0918C48.9381 34.4434 48.4645 34.7314 47.9078 34.9561C47.3609 35.1807 46.7018 35.293 45.9303 35.293C44.9342 35.293 44.0309 35.0928 43.2203 34.6924C42.4098 34.2822 41.7604 33.7207 41.2721 33.0078C40.7936 32.2949 40.5543 31.4746 40.5543 30.5469C40.5543 29.7168 40.7057 28.9795 41.0084 28.335C41.3111 27.6904 41.7652 27.1436 42.3707 26.6943C42.9859 26.2451 43.7574 25.9082 44.6852 25.6836C45.6129 25.4492 46.6969 25.332 47.9371 25.332H50.2223Z" fill="white"/>
<path d="M59.6945 33.1689L63.84 19.1504H68.7619L62.3899 37.373C62.2531 37.7734 62.0676 38.2031 61.8332 38.6621C61.6086 39.1211 61.301 39.5605 60.9104 39.9805C60.5295 40.4004 60.0412 40.7422 59.4455 41.0059C58.8498 41.2695 58.1174 41.4014 57.2482 41.4014C56.8088 41.4014 56.467 41.377 56.2229 41.3281C55.9885 41.2891 55.676 41.2207 55.2854 41.123L55.2707 37.7979C55.3977 37.7979 55.51 37.7979 55.6076 37.7979C55.715 37.8076 55.8225 37.8125 55.9299 37.8125C56.4768 37.8125 56.9162 37.7539 57.2482 37.6367C57.59 37.5195 57.8537 37.3438 58.0393 37.1094C58.2346 36.8848 58.3908 36.5967 58.508 36.2451L59.6945 33.1689ZM58.3029 19.1504L61.5842 30.4297L62.1408 35.2783L59.05 35.4395L53.3811 19.1504H58.3029Z" fill="white"/>
<path d="M79.4354 29.375C79.4354 29.0137 79.3816 28.6914 79.2742 28.4082C79.1668 28.1152 78.9715 27.8467 78.6883 27.6025C78.4051 27.3584 78.0047 27.1143 77.4871 26.8701C76.9695 26.6162 76.2908 26.3574 75.451 26.0938C74.4939 25.7812 73.5809 25.4297 72.7117 25.0391C71.8523 24.6387 71.0857 24.1748 70.4119 23.6475C69.7381 23.1201 69.2059 22.5049 68.8152 21.8018C68.4344 21.0986 68.2439 20.2783 68.2439 19.3408C68.2439 18.4326 68.4441 17.6123 68.8445 16.8799C69.2449 16.1475 69.8064 15.5225 70.5291 15.0049C71.2518 14.4775 72.1014 14.0771 73.0779 13.8037C74.0545 13.5205 75.1287 13.3789 76.3006 13.3789C77.8631 13.3789 79.2352 13.6572 80.4168 14.2139C81.6082 14.7607 82.5359 15.5322 83.2 16.5283C83.8641 17.5146 84.1961 18.6621 84.1961 19.9707H79.45C79.45 19.3945 79.3279 18.8867 79.0838 18.4473C78.8494 17.998 78.4881 17.6465 77.9998 17.3926C77.5213 17.1387 76.9207 17.0117 76.1981 17.0117C75.4949 17.0117 74.9041 17.1191 74.4256 17.334C73.9568 17.5391 73.6004 17.8223 73.3563 18.1836C73.1219 18.5449 73.0047 18.9404 73.0047 19.3701C73.0047 19.7119 73.0926 20.0244 73.2684 20.3076C73.4539 20.5811 73.7176 20.8398 74.0594 21.084C74.4109 21.3184 74.8406 21.543 75.3484 21.7578C75.8563 21.9727 76.4373 22.1777 77.0916 22.373C78.2342 22.7344 79.2449 23.1348 80.1238 23.5742C81.0125 24.0137 81.7596 24.5117 82.365 25.0684C82.9705 25.625 83.4246 26.2549 83.7273 26.958C84.0398 27.6611 84.1961 28.457 84.1961 29.3457C84.1961 30.293 84.0106 31.1328 83.6395 31.8652C83.2781 32.5977 82.7508 33.2227 82.0574 33.7402C81.3738 34.248 80.5535 34.6338 79.5965 34.8975C78.6395 35.1611 77.5701 35.293 76.3885 35.293C75.3143 35.293 74.2547 35.1562 73.2098 34.8828C72.1648 34.5996 71.2176 34.1699 70.368 33.5938C69.5281 33.0176 68.8543 32.2852 68.3465 31.3965C67.8484 30.498 67.5994 29.4336 67.5994 28.2031H72.3748C72.3748 28.8477 72.4676 29.3945 72.6531 29.8438C72.8387 30.2832 73.1023 30.6396 73.4441 30.9131C73.7957 31.1865 74.2205 31.3818 74.7186 31.499C75.2166 31.6162 75.7732 31.6748 76.3885 31.6748C77.1014 31.6748 77.6775 31.5771 78.117 31.3818C78.5662 31.1768 78.8982 30.8984 79.1131 30.5469C79.3279 30.1953 79.4354 29.8047 79.4354 29.375Z" fill="white"/>
<path d="M92.7309 19.1504V22.3584H83.3266V19.1504H92.7309ZM85.4799 15.2246H90.0648V30.0342C90.0648 30.4736 90.1186 30.8105 90.226 31.0449C90.3334 31.2793 90.5092 31.4453 90.7533 31.543C90.9975 31.6309 91.31 31.6748 91.6908 31.6748C91.9643 31.6748 92.1986 31.665 92.394 31.6455C92.5893 31.626 92.7699 31.6016 92.9359 31.5723V34.8828C92.5453 35.0098 92.1303 35.1074 91.6908 35.1758C91.2514 35.2539 90.7729 35.293 90.2553 35.293C89.269 35.293 88.4145 35.1318 87.6918 34.8096C86.9789 34.4873 86.432 33.9795 86.0512 33.2861C85.6703 32.583 85.4799 31.6699 85.4799 30.5469V15.2246Z" fill="white"/>
<path d="M101.222 31.2207V24.4238C101.222 23.9453 101.148 23.5352 101.002 23.1934C100.855 22.8516 100.626 22.583 100.313 22.3877C100.001 22.1924 99.5957 22.0947 99.0977 22.0947C98.6777 22.0947 98.3115 22.168 97.999 22.3145C97.6963 22.4609 97.4619 22.6709 97.2959 22.9443C97.1397 23.2178 97.0615 23.5547 97.0615 23.9551H92.4912C92.4912 23.2422 92.6524 22.5781 92.9746 21.9629C93.2969 21.3477 93.7559 20.8057 94.3516 20.3369C94.957 19.8682 95.6797 19.5068 96.5195 19.2529C97.3594 18.9893 98.3018 18.8574 99.3467 18.8574C100.587 18.8574 101.69 19.0674 102.657 19.4873C103.634 19.8975 104.405 20.5176 104.972 21.3477C105.538 22.168 105.821 23.2031 105.821 24.4531V31.0889C105.821 32.0459 105.875 32.7979 105.982 33.3447C106.1 33.8818 106.266 34.3506 106.48 34.751V35H101.866C101.651 34.541 101.49 33.9746 101.383 33.3008C101.275 32.6172 101.222 31.9238 101.222 31.2207ZM101.793 25.332L101.822 27.8516H99.5518C99.044 27.8516 98.6045 27.915 98.2334 28.042C97.8721 28.1689 97.5791 28.3447 97.3545 28.5693C97.1299 28.7842 96.9639 29.0381 96.8565 29.3311C96.7588 29.6143 96.71 29.9268 96.71 30.2686C96.71 30.5908 96.7881 30.8838 96.9443 31.1475C97.1006 31.4014 97.3154 31.6016 97.5889 31.748C97.8623 31.8945 98.1797 31.9678 98.541 31.9678C99.1367 31.9678 99.6445 31.8506 100.064 31.6162C100.494 31.3818 100.826 31.0986 101.061 30.7666C101.295 30.4248 101.412 30.1074 101.412 29.8145L102.511 31.7188C102.335 32.1094 102.12 32.5146 101.866 32.9346C101.612 33.3447 101.29 33.7305 100.899 34.0918C100.509 34.4434 100.035 34.7314 99.4785 34.9561C98.9316 35.1807 98.2725 35.293 97.501 35.293C96.5049 35.293 95.6016 35.0928 94.791 34.6924C93.9805 34.2822 93.3311 33.7207 92.8428 33.0078C92.3643 32.2949 92.125 31.4746 92.125 30.5469C92.125 29.7168 92.2764 28.9795 92.5791 28.335C92.8818 27.6904 93.3359 27.1436 93.9414 26.6943C94.5566 26.2451 95.3281 25.9082 96.2559 25.6836C97.1836 25.4492 98.2676 25.332 99.5078 25.332H101.793Z" fill="white"/>
<path d="M114.781 19.1504V22.3584H105.377V19.1504H114.781ZM107.53 15.2246H112.115V30.0342C112.115 30.4736 112.169 30.8105 112.276 31.0449C112.383 31.2793 112.559 31.4453 112.803 31.543C113.047 31.6309 113.36 31.6748 113.741 31.6748C114.014 31.6748 114.249 31.665 114.444 31.6455C114.639 31.626 114.82 31.6016 114.986 31.5723V34.8828C114.595 35.0098 114.18 35.1074 113.741 35.1758C113.301 35.2539 112.823 35.293 112.305 35.293C111.319 35.293 110.464 35.1318 109.742 34.8096C109.029 34.4873 108.482 33.9795 108.101 33.2861C107.72 32.583 107.53 31.6699 107.53 30.5469V15.2246Z" fill="white"/>
<path d="M119.697 19.1504V35H115.113V19.1504H119.697ZM114.834 15.0488C114.834 14.3848 115.069 13.8428 115.537 13.4229C116.006 12.9932 116.621 12.7783 117.383 12.7783C118.145 12.7783 118.76 12.9932 119.229 13.4229C119.707 13.8428 119.946 14.3848 119.946 15.0488C119.946 15.7031 119.707 16.2451 119.229 16.6748C118.76 17.0947 118.145 17.3047 117.383 17.3047C116.621 17.3047 116.006 17.0947 115.537 16.6748C115.069 16.2451 114.834 15.7031 114.834 15.0488Z" fill="white"/>
<path d="M120.234 27.2363V26.9287C120.234 25.7666 120.4 24.6973 120.732 23.7207C121.064 22.7344 121.553 21.8799 122.197 21.1572C122.842 20.4346 123.633 19.873 124.57 19.4727C125.508 19.0625 126.582 18.8574 127.793 18.8574C129.023 18.8574 130.107 19.0625 131.045 19.4727C131.992 19.873 132.788 20.4346 133.432 21.1572C134.077 21.8799 134.565 22.7344 134.897 23.7207C135.229 24.6973 135.395 25.7666 135.395 26.9287V27.2363C135.395 28.3887 135.229 29.458 134.897 30.4443C134.565 31.4209 134.077 32.2754 133.432 33.0078C132.788 33.7305 131.997 34.292 131.059 34.6924C130.122 35.0928 129.043 35.293 127.822 35.293C126.611 35.293 125.532 35.0928 124.585 34.6924C123.638 34.292 122.842 33.7305 122.197 33.0078C121.553 32.2754 121.064 31.4209 120.732 30.4443C120.4 29.458 120.234 28.3887 120.234 27.2363ZM124.819 26.9287V27.2363C124.819 27.8613 124.868 28.4473 124.966 28.9941C125.073 29.541 125.244 30.0195 125.478 30.4297C125.713 30.8398 126.02 31.1621 126.401 31.3965C126.792 31.6211 127.265 31.7334 127.822 31.7334C128.379 31.7334 128.847 31.6211 129.228 31.3965C129.609 31.1621 129.917 30.8398 130.151 30.4297C130.386 30.0195 130.552 29.541 130.649 28.9941C130.757 28.4473 130.81 27.8613 130.81 27.2363V26.9287C130.81 26.3135 130.757 25.7373 130.649 25.2002C130.552 24.6533 130.386 24.1699 130.151 23.75C129.917 23.3301 129.604 23.0029 129.214 22.7686C128.833 22.5342 128.359 22.417 127.793 22.417C127.246 22.417 126.782 22.5342 126.401 22.7686C126.02 23.0029 125.713 23.3301 125.478 23.75C125.244 24.1699 125.073 24.6533 124.966 25.2002C124.868 25.7373 124.819 26.3135 124.819 26.9287Z" fill="white"/>
<path d="M140.18 22.5342V35H135.595V19.1504H139.902L140.18 22.5342ZM139.579 26.5186L138.437 26.5479C138.437 25.3564 138.583 24.2871 138.876 23.3398C139.169 22.3926 139.584 21.5869 140.121 20.9229C140.668 20.249 141.318 19.7363 142.07 19.3848C142.831 19.0332 143.671 18.8574 144.589 18.8574C145.331 18.8574 146.01 18.9648 146.625 19.1797C147.241 19.3945 147.768 19.7412 148.207 20.2197C148.657 20.6885 148.998 21.3135 149.233 22.0947C149.467 22.8662 149.584 23.8184 149.584 24.9512V35H144.985V24.9365C144.985 24.2725 144.892 23.7598 144.706 23.3984C144.521 23.0371 144.247 22.7832 143.886 22.6367C143.535 22.4902 143.105 22.417 142.597 22.417C142.06 22.417 141.601 22.5244 141.22 22.7393C140.839 22.9443 140.527 23.2324 140.283 23.6035C140.038 23.9746 139.858 24.4092 139.741 24.9072C139.633 25.4053 139.579 25.9424 139.579 26.5186Z" fill="white"/>
<path d="M159.798 25.3906L156.166 24.5264L157.411 13.6719H169.628V17.29H161.161L160.648 21.7871C160.912 21.6309 161.327 21.46 161.893 21.2744C162.46 21.0791 163.094 20.9814 163.797 20.9814C164.842 20.9814 165.77 21.1426 166.581 21.4648C167.391 21.7871 168.075 22.2559 168.631 22.8711C169.198 23.4766 169.623 24.2236 169.906 25.1123C170.199 26.001 170.345 27.0117 170.345 28.1445C170.345 29.082 170.199 29.9805 169.906 30.8398C169.613 31.6895 169.164 32.4512 168.558 33.125C167.962 33.7891 167.206 34.3164 166.288 34.707C165.37 35.0977 164.291 35.293 163.05 35.293C162.113 35.293 161.205 35.1514 160.326 34.8682C159.447 34.585 158.656 34.1748 157.953 33.6377C157.259 33.0908 156.708 32.4268 156.297 31.6455C155.897 30.8643 155.692 29.9854 155.682 29.0088H160.253C160.301 29.5752 160.443 30.0635 160.677 30.4736C160.912 30.874 161.229 31.1865 161.629 31.4111C162.03 31.626 162.494 31.7334 163.021 31.7334C163.529 31.7334 163.959 31.6357 164.31 31.4404C164.662 31.2354 164.94 30.957 165.145 30.6055C165.36 30.2539 165.516 29.8438 165.614 29.375C165.712 28.9062 165.76 28.4033 165.76 27.8662C165.76 27.3096 165.697 26.8115 165.57 26.3721C165.443 25.9229 165.248 25.542 164.984 25.2295C164.72 24.9072 164.383 24.6631 163.973 24.4971C163.573 24.3213 163.089 24.2334 162.523 24.2334C161.781 24.2334 161.2 24.3555 160.78 24.5996C160.36 24.8438 160.033 25.1074 159.798 25.3906Z" fill="white"/>
</svg>
