<svg width="211" height="62" viewBox="0 0 211 62" fill="none" xmlns="http://www.w3.org/2000/svg">
<path d="M5.0325 40.114C3.61267 40.3989 2.33623 41.159 1.41918 42.2654C0.502133 43.3719 0.000795222 44.757 6.54689e-07 46.1861L-1.85783e-07 55.8C-3.29536e-07 57.4443 0.662248 59.0213 1.84105 60.1841C3.01985 61.3468 4.61864 62 6.28572 62L81.7143 62C83.3814 62 84.9802 61.3468 86.159 60.1841C87.3378 59.0213 88 57.4443 88 55.8L88 46.1861C87.9992 44.757 87.4979 43.3719 86.5808 42.2655C85.6638 41.159 84.3873 40.3989 82.9675 40.114C80.8445 39.6797 78.9381 38.537 77.5694 36.8783C76.2007 35.2197 75.4535 33.1464 75.4535 31.0078C75.4535 28.8691 76.2007 26.7959 77.5694 25.1372C78.9381 23.4785 80.8445 22.3358 82.9675 21.9015C84.39 21.616 85.6684 20.8537 86.5858 19.7441C87.5031 18.6344 88.0028 17.2457 88 15.8139L88 6.20001C88 4.55567 87.3378 2.97867 86.159 1.81595C84.9802 0.653223 83.3814 6.68697e-06 81.7143 6.54123e-06L6.28572 -5.29449e-08C4.61865 -1.98685e-07 3.01985 0.653216 1.84105 1.81594C0.662253 2.97867 4.29414e-06 4.55566 4.15039e-06 6.2L3.30991e-06 15.8139C0.000797628 17.243 0.502135 18.6281 1.41918 19.7345C2.33623 20.841 3.61267 21.6011 5.03251 21.886C7.15553 22.3203 9.06194 23.463 10.4306 25.1217C11.7993 26.7803 12.5465 28.8536 12.5465 30.9922C12.5465 33.1309 11.7993 35.2041 10.4306 36.8628C9.06193 38.5215 7.15552 39.6642 5.0325 40.0985L5.0325 40.114ZM81.7143 15.81C78.1641 16.5234 74.9728 18.4249 72.6808 21.1926C70.3888 23.9604 69.1368 27.4243 69.1368 30.9981C69.1368 34.5718 70.3887 38.0357 72.6808 40.8035C74.9728 43.5713 78.1641 45.4728 81.7143 46.1861L81.7143 55.8L59.7143 55.8L59.7143 6.20001L81.7143 6.20001L81.7143 15.81ZM6.28572 15.81L6.28572 6.2L53.4286 6.20001L53.4286 55.8L6.28572 55.8L6.28572 46.19C9.83594 45.4766 13.0272 43.5751 15.3192 40.8074C17.6112 38.0396 18.8632 34.5757 18.8632 31.0019C18.8632 27.4282 17.6112 23.9643 15.3192 21.1965C13.0272 18.4287 9.83594 16.5272 6.28572 15.8139L6.28572 15.81Z" fill="url(#paint0_linear_1_16)"/>
<path d="M95 10H102.98C104.569 10 105.944 10.2404 107.106 10.7212C108.276 11.2019 109.175 11.9135 109.804 12.8558C110.432 13.7981 110.746 14.9615 110.746 16.3462C110.746 17.5 110.56 18.4808 110.189 19.2885C109.818 20.0962 109.294 20.7644 108.619 21.2933C107.953 21.8221 107.172 22.25 106.278 22.5769L104.764 23.4135H97.9693L97.9407 19.7644H102.994C103.689 19.7644 104.265 19.6394 104.722 19.3894C105.178 19.1394 105.521 18.7885 105.749 18.3365C105.987 17.875 106.106 17.3365 106.106 16.7212C106.106 16.0865 105.987 15.5385 105.749 15.0769C105.511 14.6154 105.159 14.2644 104.693 14.024C104.236 13.774 103.665 13.649 102.98 13.649H99.6538V31H95V10ZM106.506 31L101.838 21.6683L106.749 21.6538L111.488 30.7837V31H106.506Z" fill="white"/>
<path d="M118.854 10V31H114.215V10H118.854Z" fill="white"/>
<path d="M127.262 10V31H122.609V10H127.262ZM135.442 18.8558V22.4904H125.963V18.8558H135.442ZM136.356 10V13.649H125.963V10H136.356Z" fill="white"/>
<path d="M144.578 13.9952L139.211 31H134.243L141.937 10H145.078L144.578 13.9952ZM149.032 31L143.65 13.9952L143.094 10H146.277L154 31H149.032ZM148.804 23.1827V26.8173H137.969V23.1827H148.804Z" fill="white"/>
<path d="M100.15 53.5L104.24 36H106.596L107.527 38.1703L103.168 56H100.587L100.15 53.5ZM98.5559 36L101.983 53.5824L101.391 56H98.4572L94 36H98.5559ZM110.446 53.4863L113.831 36H118.373L113.916 56H111.011L110.446 53.4863ZM108.133 36L112.28 53.5962L111.8 56H109.233L104.804 38.1566L105.778 36H108.133Z" fill="white"/>
<path d="M128.402 39.8049L123.098 56H118.19L125.792 36H128.895L128.402 39.8049ZM132.803 56L127.485 39.8049L126.935 36H130.08L137.711 56H132.803ZM132.577 48.5549V52.0165H121.871V48.5549H132.577Z" fill="white"/>
<path d="M156.358 36V56H151.774L144.016 43.0742V56H139.418V36H144.016L151.788 48.9258V36H156.358Z" fill="white"/>
<path d="M166.259 56H161.746L161.774 52.5385H166.259C167.284 52.5385 168.149 52.3095 168.855 51.8516C169.56 51.3846 170.096 50.6978 170.463 49.7912C170.829 48.8755 171.013 47.7628 171.013 46.4533V45.533C171.013 44.544 170.909 43.674 170.702 42.9231C170.495 42.163 170.19 41.5266 169.786 41.0137C169.381 40.5009 168.878 40.1163 168.276 39.8599C167.684 39.6035 167.002 39.4753 166.231 39.4753H161.661V36H166.231C167.623 36 168.892 36.2289 170.039 36.6868C171.196 37.1447 172.193 37.7995 173.03 38.6511C173.876 39.5027 174.529 40.5101 174.99 41.6731C175.451 42.8361 175.681 44.1319 175.681 45.5604V46.4533C175.681 47.8727 175.451 49.1685 174.99 50.3407C174.529 51.5037 173.876 52.511 173.03 53.3626C172.193 54.2051 171.201 54.8553 170.054 55.3132C168.906 55.7711 167.642 56 166.259 56ZM164.355 36V56H159.757V36H164.355Z" fill="white"/>
<path d="M192.452 52.5385V56H181.521V52.5385H192.452ZM183.086 36V56H178.488V36H183.086ZM191.042 44.0495V47.4011H181.521V44.0495H191.042ZM192.466 36V39.4753H181.521V36H192.466Z" fill="white"/>
<path d="M194.709 36H202.594C204.164 36 205.523 36.2289 206.67 36.6868C207.826 37.1447 208.715 37.8223 209.336 38.7198C209.956 39.6172 210.267 40.7253 210.267 42.044C210.267 43.1429 210.083 44.0769 209.716 44.8462C209.35 45.6154 208.833 46.2518 208.165 46.7555C207.507 47.2592 206.736 47.6667 205.852 47.978L204.357 48.7747H197.643L197.614 45.2995H202.608C203.294 45.2995 203.863 45.1804 204.314 44.9423C204.766 44.7042 205.104 44.37 205.33 43.9396C205.565 43.5 205.682 42.9872 205.682 42.4011C205.682 41.7967 205.565 41.2747 205.33 40.8352C205.095 40.3956 204.747 40.0614 204.286 39.8324C203.835 39.5943 203.271 39.4753 202.594 39.4753H199.307V56H194.709V36ZM206.077 56L201.465 47.1126L206.317 47.0989L211 55.794V56H206.077Z" fill="white"/>
<path d="M163.264 30.8663H160.998L161.013 29.1818H163.264C163.779 29.1818 164.213 29.0704 164.567 28.8476C164.921 28.6203 165.19 28.2861 165.375 27.8449C165.559 27.3993 165.651 26.8578 165.651 26.2206V25.7727C165.651 25.2914 165.599 24.8681 165.495 24.5027C165.391 24.1328 165.238 23.8231 165.035 23.5735C164.832 23.324 164.579 23.1368 164.277 23.012C163.98 22.8873 163.637 22.8249 163.25 22.8249H160.956V21.1337H163.25C163.949 21.1337 164.586 21.2451 165.162 21.4679C165.743 21.6907 166.243 22.0094 166.663 22.4238C167.088 22.8382 167.416 23.3284 167.648 23.8944C167.879 24.4603 167.994 25.0909 167.994 25.7861V26.2206C167.994 26.9113 167.879 27.5419 167.648 28.1123C167.416 28.6783 167.088 29.1684 166.663 29.5829C166.243 29.9929 165.745 30.3093 165.169 30.5321C164.593 30.7549 163.958 30.8663 163.264 30.8663ZM162.308 21.1337V30.8663H160V21.1337H162.308Z" fill="white"/>
<path d="M178 25.7861V26.2206C178 26.9603 177.891 27.6243 177.674 28.2126C177.462 28.8008 177.157 29.3021 176.761 29.7166C176.369 30.131 175.902 30.4496 175.359 30.6725C174.821 30.8908 174.223 31 173.567 31C172.911 31 172.312 30.8908 171.769 30.6725C171.226 30.4496 170.754 30.131 170.352 29.7166C169.956 29.3021 169.649 28.8008 169.432 28.2126C169.215 27.6243 169.106 26.9603 169.106 26.2206V25.7861C169.106 25.0463 169.215 24.3824 169.432 23.7941C169.649 23.2014 169.954 22.6979 170.345 22.2834C170.742 21.869 171.212 21.5526 171.755 21.3342C172.297 21.1114 172.897 21 173.553 21C174.209 21 174.809 21.1114 175.352 21.3342C175.895 21.5526 176.362 21.869 176.754 22.2834C177.15 22.6979 177.457 23.2014 177.674 23.7941C177.891 24.3824 178 25.0463 178 25.7861ZM175.67 26.2206V25.7727C175.67 25.2781 175.623 24.8414 175.529 24.4626C175.434 24.0793 175.297 23.7585 175.118 23.5C174.939 23.2415 174.717 23.0477 174.452 22.9184C174.188 22.7848 173.888 22.7179 173.553 22.7179C173.204 22.7179 172.899 22.7848 172.64 22.9184C172.38 23.0477 172.161 23.2415 171.981 23.5C171.806 23.7585 171.672 24.0793 171.577 24.4626C171.488 24.8414 171.443 25.2781 171.443 25.7727V26.2206C171.443 26.7108 171.488 27.1475 171.577 27.5307C171.672 27.9095 171.809 28.2304 171.988 28.4933C172.168 28.7562 172.387 28.9545 172.647 29.0882C172.911 29.2219 173.218 29.2888 173.567 29.2888C173.902 29.2888 174.2 29.2219 174.459 29.0882C174.724 28.9545 174.946 28.7562 175.125 28.4933C175.304 28.2304 175.439 27.9095 175.529 27.5307C175.623 27.1475 175.67 26.7108 175.67 26.2206Z" fill="white"/>
<defs>
<linearGradient id="paint0_linear_1_16" x1="4.47509e-06" y1="31" x2="88" y2="31" gradientUnits="userSpaceOnUse">
<stop stop-color="#2F2C53"/>
<stop offset="1" stop-color="#723EB5"/>
</linearGradient>
</defs>
</svg>
